<?xml version="1.0" encoding="UTF-8" standalone="no"?>
<!-- Created with Inkscape (http://www.inkscape.org/) -->

<svg
   xmlns:dc="http://purl.org/dc/elements/1.1/"
   xmlns:cc="http://creativecommons.org/ns#"
   xmlns:rdf="http://www.w3.org/1999/02/22-rdf-syntax-ns#"
   xmlns:svg="http://www.w3.org/2000/svg"
   xmlns="http://www.w3.org/2000/svg"
   xmlns:sodipodi="http://sodipodi.sourceforge.net/DTD/sodipodi-0.dtd"
   xmlns:inkscape="http://www.inkscape.org/namespaces/inkscape"
   width="76mm"
   height="76mm"
   viewBox="0 0 76 76"
   version="1.1"
   id="svg1082"
   sodipodi:docname="arr-undo1-symbolic.svg"
   inkscape:version="0.92.2 (5c3e80d, 2017-08-06)">
  <defs
     id="defs1076" />
  <sodipodi:namedview
     id="base"
     pagecolor="#ffffff"
     bordercolor="#666666"
     borderopacity="1.0"
     inkscape:pageopacity="0.0"
     inkscape:pageshadow="2"
     inkscape:zoom="0.98994949"
     inkscape:cx="402.07246"
     inkscape:cy="-52.385834"
     inkscape:document-units="mm"
     inkscape:current-layer="layer1"
     showgrid="false"
     inkscape:window-width="1630"
     inkscape:window-height="988"
     inkscape:window-x="50"
     inkscape:window-y="0"
     inkscape:window-maximized="1"
     fit-margin-top="0"
     fit-margin-left="0"
     fit-margin-right="0"
     fit-margin-bottom="0" />
  <metadata
     id="metadata1079">
    <rdf:RDF>
      <cc:Work
         rdf:about="">
        <dc:format>image/svg+xml</dc:format>
        <dc:type
           rdf:resource="http://purl.org/dc/dcmitype/StillImage" />
        <dc:title></dc:title>
      </cc:Work>
    </rdf:RDF>
  </metadata>
  <g
     inkscape:label="Layer 1"
     inkscape:groupmode="layer"
     id="layer1"
     transform="translate(-15.269659,-16.538778)">
    <path
       style="fill:#808080;fill-opacity:1;stroke:none;stroke-width:0.52916664;stroke-miterlimit:4;stroke-dasharray:none;stroke-opacity:1"
       d="m 50.165432,27.325261 a 32.606879,32.606879 0 0 0 -1.041797,0.05323 V 37.519472 A 22.450641,22.450641 0 0 1 50.1737,37.481232 22.450641,22.450641 0 0 1 72.643646,59.90622 v 0.02584 a 22.450641,22.450641 0 0 1 -22.444109,22.45031 22.450641,22.450641 0 0 1 -1.075902,-0.0538 v 10.17251 a 32.606879,32.606879 0 0 0 1.078487,0.0377 32.606879,32.606879 0 0 0 32.597491,-32.60679 V 59.89485 A 32.606879,32.606879 0 0 0 50.165432,27.325261 Z"
       id="path1627"
       inkscape:connector-curvature="0" />
    <path
       style="fill:#808080;fill-opacity:1;stroke:none;stroke-width:0.52916664;stroke-miterlimit:4;stroke-dasharray:none;stroke-opacity:1"
       d="m 141.35778,27.325227 a 32.606879,32.606879 0 0 0 -0.77412,0.03927 v 12.416814 a 20.17885,20.17885 0 0 1 0.78497,-0.02842 20.17885,20.17885 0 0 1 20.19618,20.155876 v 0.02325 a 20.17885,20.17885 0 0 1 -20.17344,20.178614 20.17885,20.17885 0 0 1 -0.80771,-0.04031 v 12.440068 a 32.606879,32.606879 0 0 0 0.81133,0.02842 32.606879,32.606879 0 0 0 32.59749,-32.606795 v -0.03721 a 32.606879,32.606879 0 0 0 -32.6347,-32.569588 z"
       id="path1627-3"
       inkscape:connector-curvature="0" />
    <path
       sodipodi:type="star"
       style="fill:#808080;fill-opacity:1;stroke:none;stroke-width:0.52916664;stroke-miterlimit:4;stroke-dasharray:none;stroke-opacity:1"
       id="path1679"
       sodipodi:sides="3"
       sodipodi:cx="39.76944"
       sodipodi:cy="33.338612"
       sodipodi:r1="19.208109"
       sodipodi:r2="9.6040535"
       sodipodi:arg1="-1.0471976"
       sodipodi:arg2="0"
       inkscape:flatsided="false"
       inkscape:rounded="0"
       inkscape:randomized="0"
       d="m 49.373493,16.703901 0,16.634711 2e-6,16.634709 -14.406082,-8.317355 -14.406082,-8.317353 14.406082,-8.317356 z"
       inkscape:transform-center-x="4.8020278"
       inkscape:transform-center-y="-1.5025608e-06" />
    <path
       sodipodi:type="star"
       style="fill:#808080;fill-opacity:1;stroke:none;stroke-width:0.52916664;stroke-miterlimit:4;stroke-dasharray:none;stroke-opacity:1"
       id="path1679-0"
       sodipodi:sides="3"
       sodipodi:cx="131.2205"
       sodipodi:cy="33.338612"
       sodipodi:r1="19.208111"
       sodipodi:r2="9.6040535"
       sodipodi:arg1="-1.0471976"
       sodipodi:arg2="0"
       inkscape:flatsided="false"
       inkscape:rounded="0"
       inkscape:randomized="0"
       d="m 140.82456,16.703899 0,16.634713 0,16.634711 -14.40608,-8.317357 -14.40609,-8.317353 14.40609,-8.317356 z"
       inkscape:transform-center-x="4.8020278"
       inkscape:transform-center-y="-1.5025608e-06" />
  </g>
</svg>
