<?xml version="1.0" encoding="UTF-8" standalone="no"?>
<svg
   xmlns:dc="http://purl.org/dc/elements/1.1/"
   xmlns:cc="http://creativecommons.org/ns#"
   xmlns:rdf="http://www.w3.org/1999/02/22-rdf-syntax-ns#"
   xmlns:svg="http://www.w3.org/2000/svg"
   xmlns="http://www.w3.org/2000/svg"
   id="svg1082"
   version="1.1"
   viewBox="0 0 76 76"
   height="76mm"
   width="76mm">
  <defs
     id="defs1076" />
  <metadata
     id="metadata1079">
    <rdf:RDF>
      <cc:Work
         rdf:about="">
        <dc:format>image/svg+xml</dc:format>
        <dc:type
           rdf:resource="http://purl.org/dc/dcmitype/StillImage" />
        <dc:title></dc:title>
      </cc:Work>
    </rdf:RDF>
  </metadata>
  <g
     transform="translate(-15.269659,-16.538778)"
     id="layer1">
    <path
       id="path1627-3"
       d="m 50.75341,27.057957 a 32.606879,32.606879 0 0 0 -0.77412,0.03927 v 12.416814 a 20.17885,20.17885 0 0 1 0.78497,-0.02842 20.17885,20.17885 0 0 1 20.19618,20.155876 v 0.02325 A 20.17885,20.17885 0 0 1 50.787,79.843361 20.17885,20.17885 0 0 1 49.97929,79.803051 v 12.440068 a 32.606879,32.606879 0 0 0 0.81133,0.02842 32.606879,32.606879 0 0 0 32.59749,-32.606795 v -0.03721 A 32.606879,32.606879 0 0 0 50.75341,27.057946 Z"
       style="fill:#808080;fill-opacity:1;stroke:none;stroke-width:0.52916664;stroke-miterlimit:4;stroke-dasharray:none;stroke-opacity:1" />
    <path
       d="m 50.220189,16.43663 -10e-7,16.634712 3e-6,16.634712 -14.406083,-8.317357 -14.406084,-8.317354 14.406084,-8.317355 z"
       id="path1679-0"
       style="fill:#808080;fill-opacity:1;stroke:none;stroke-width:0.52916664;stroke-miterlimit:4;stroke-dasharray:none;stroke-opacity:1" />
  </g>
</svg>
