<?xml version="1.0" encoding="UTF-8" standalone="no"?>
<svg
   xmlns:dc="http://purl.org/dc/elements/1.1/"
   xmlns:cc="http://creativecommons.org/ns#"
   xmlns:rdf="http://www.w3.org/1999/02/22-rdf-syntax-ns#"
   xmlns:svg="http://www.w3.org/2000/svg"
   xmlns="http://www.w3.org/2000/svg"
   id="svg1082"
   version="1.1"
   viewBox="0 0 76 76"
   height="76mm"
   width="76mm">
  <defs
     id="defs1076" />
  <metadata
     id="metadata1079">
    <rdf:RDF>
      <cc:Work
         rdf:about="">
        <dc:format>image/svg+xml</dc:format>
        <dc:type
           rdf:resource="http://purl.org/dc/dcmitype/StillImage" />
        <dc:title></dc:title>
      </cc:Work>
    </rdf:RDF>
  </metadata>
  <g
     transform="translate(-15.269659,-16.538778)"
     id="layer1">
    <path
       id="path840"
       transform="matrix(0.26458333,0,0,0.26458333,15.269659,16.538778)"
       d="M 138.31055 11.472656 A 94.954342 94.954342 0 0 0 70.960938 39.746094 L 89.886719 61.990234 A 65.904385 65.904385 0 0 1 138.33398 40.521484 A 65.904385 65.904385 0 0 1 204.29492 106.35156 L 204.29492 106.42773 A 65.904385 65.904385 0 0 1 138.41016 172.33203 A 65.904385 65.904385 0 0 1 116.16797 168.38477 L 116.16797 198.63477 A 94.954342 94.954342 0 0 0 138.41797 201.38086 A 94.954342 94.954342 0 0 0 233.3457 106.42773 L 233.3457 106.31836 A 94.954342 94.954342 0 0 0 138.31055 11.472656 z "
       style="fill:#808080;fill-opacity:1;stroke:none;stroke-width:1.95833325;stroke-miterlimit:4;stroke-dasharray:none;stroke-opacity:1" />
    <rect
       ry="0"
       y="65.314888"
       x="46.005661"
       height="10.156241"
       width="8.9574623"
       id="rect863"
       style="fill:#808080;fill-opacity:1;stroke:none;stroke-width:0.23330016;stroke-miterlimit:4;stroke-dasharray:none;stroke-opacity:1" />
    <rect
       ry="0"
       y="78.646133"
       x="46.005661"
       height="10.423511"
       width="8.9574623"
       id="rect863-8"
       style="fill:#808080;fill-opacity:1;stroke:none;stroke-width:0.23634997;stroke-miterlimit:4;stroke-dasharray:none;stroke-opacity:1" />
  </g>
</svg>
