<?xml version="1.0" encoding="UTF-8" standalone="no"?>
<!-- Created with Inkscape (http://www.inkscape.org/) -->

<svg
   xmlns:dc="http://purl.org/dc/elements/1.1/"
   xmlns:cc="http://creativecommons.org/ns#"
   xmlns:rdf="http://www.w3.org/1999/02/22-rdf-syntax-ns#"
   xmlns:svg="http://www.w3.org/2000/svg"
   xmlns="http://www.w3.org/2000/svg"
   xmlns:sodipodi="http://sodipodi.sourceforge.net/DTD/sodipodi-0.dtd"
   xmlns:inkscape="http://www.inkscape.org/namespaces/inkscape"
   width="76mm"
   height="76mm"
   viewBox="0 0 76 76"
   version="1.1"
   id="svg1082"
   sodipodi:docname="qmark2-symbolic.svg"
   inkscape:version="0.92.2 (5c3e80d, 2017-08-06)">
  <defs
     id="defs1076" />
  <sodipodi:namedview
     id="base"
     pagecolor="#ffffff"
     bordercolor="#666666"
     borderopacity="1.0"
     inkscape:pageopacity="0.0"
     inkscape:pageshadow="2"
     inkscape:zoom="0.49497475"
     inkscape:cx="-342.65456"
     inkscape:cy="-31.400195"
     inkscape:document-units="mm"
     inkscape:current-layer="layer1"
     showgrid="false"
     inkscape:window-width="1630"
     inkscape:window-height="980"
     inkscape:window-x="50"
     inkscape:window-y="0"
     inkscape:window-maximized="1"
     fit-margin-top="0"
     fit-margin-left="0"
     fit-margin-right="0"
     fit-margin-bottom="0" />
  <metadata
     id="metadata1079">
    <rdf:RDF>
      <cc:Work
         rdf:about="">
        <dc:format>image/svg+xml</dc:format>
        <dc:type
           rdf:resource="http://purl.org/dc/dcmitype/StillImage" />
        <dc:title></dc:title>
      </cc:Work>
    </rdf:RDF>
  </metadata>
  <g
     inkscape:label="Layer 1"
     inkscape:groupmode="layer"
     id="layer1"
     transform="translate(-15.269659,-16.538778)">
    <rect
       style="fill:#808080;fill-opacity:1;stroke:none;stroke-width:0.29617834;stroke-miterlimit:4;stroke-dasharray:none;stroke-opacity:1"
       id="rect863"
       width="14.436488"
       height="10.156241"
       x="43.888992"
       y="65.314888"
       ry="0" />
    <rect
       style="fill:#808080;fill-opacity:1;stroke:none;stroke-width:0.30005011;stroke-miterlimit:4;stroke-dasharray:none;stroke-opacity:1"
       id="rect863-8"
       width="14.436488"
       height="10.423511"
       x="43.888992"
       y="78.646133"
       ry="0" />
    <path
       style="fill:#808080;fill-opacity:1;stroke:none;stroke-width:0.66271555;stroke-miterlimit:4;stroke-dasharray:none;stroke-opacity:1"
       d="m 49.284846,19.574252 a 27.111097,25.229909 0 0 0 -19.087163,7.386629 l 9.000781,10.273273 a 12.997081,12.095238 0 0 1 10.098599,-4.525306 12.997081,12.095238 0 0 1 13.008346,12.081433 v 0.01344 a 12.997081,12.095238 0 0 1 -12.993908,12.095383 12.997081,12.095238 0 0 1 -5.5474,-1.171506 v 13.743346 a 27.111097,25.229909 0 0 0 5.551842,0.56276 27.111097,25.229909 0 0 0 27.103401,-25.229985 v -0.02842 A 27.111097,25.229909 0 0 0 49.284846,19.574252 Z"
       id="path940"
       inkscape:connector-curvature="0" />
  </g>
</svg>
